<?xml version="1.0" standalone="no"?>
<!DOCTYPE svg PUBLIC "-//W3C//DTD SVG 20010904//EN"
 "http://www.w3.org/TR/2001/REC-SVG-20010904/DTD/svg10.dtd">
<svg version="1.0" xmlns="http://www.w3.org/2000/svg"
 width="640.000000pt" height="640.000000pt" viewBox="0 0 640.000000 640.000000"
 preserveAspectRatio="xMidYMid meet">
<metadata>
Created by potrace 1.11, written by Peter Selinger 2001-2013
</metadata>
<g transform="translate(0.000000,640.000000) scale(0.100000,-0.100000)"
fill="#000000" stroke="none">
<path d="M558 4994 c-56 -20 -191 -129 -175 -142 6 -5 129 -83 272 -173 143
-90 334 -210 425 -267 152 -96 326 -206 385 -242 14 -8 159 -99 323 -203 l298
-187 146 -148 c231 -233 230 -232 216 -236 -7 -2 -101 -21 -208 -41 -107 -20
-238 -45 -290 -55 -52 -11 -111 -22 -130 -25 -19 -3 -60 -10 -90 -16 l-54 -11
-66 69 c-36 38 -112 121 -170 184 -176 191 -273 283 -326 312 -62 32 -77 34
-173 18 l-73 -13 7 -87 c4 -47 8 -108 10 -136 2 -27 6 -72 9 -100 20 -183 19
-188 0 -177 -11 5 -50 24 -89 42 -99 46 -239 112 -395 187 -171 83 -201 93
-264 93 -57 0 -133 -30 -143 -56 -7 -18 4 -29 267 -274 67 -63 141 -132 164
-154 23 -21 85 -79 139 -129 l98 -90 -25 -26 c-34 -36 -43 -87 -20 -112 19
-21 71 -38 143 -45 25 -3 51 -7 56 -9 6 -1 82 -98 170 -214 106 -142 166 -213
182 -217 29 -8 113 13 135 33 10 9 32 77 54 170 l37 155 61 -6 c260 -25 1134
-26 1341 -1 17 2 67 6 111 10 45 3 93 8 106 10 25 5 25 5 322 -259 38 -33 76
-68 85 -76 15 -14 17 -62 16 -488 l0 -473 50 5 c27 3 82 8 120 12 82 8 135 31
168 76 20 27 128 253 207 433 10 22 37 81 60 130 55 119 47 100 229 499 88
192 163 352 168 356 4 4 33 11 63 14 134 15 521 87 760 141 223 50 568 155
700 213 275 119 404 221 427 337 9 43 -9 106 -38 140 -39 44 -86 66 -238 110
-68 20 -153 51 -190 69 -114 57 -153 66 -297 67 -118 0 -206 -18 -355 -72 -94
-34 -139 -47 -239 -65 -14 -2 -86 -16 -160 -30 -74 -14 -146 -28 -160 -31 -14
-2 -142 -26 -285 -53 -143 -27 -277 -52 -298 -55 -32 -5 -89 14 -390 130 -193
75 -361 140 -372 145 -11 5 -254 100 -540 211 -286 110 -572 221 -635 246 -63
25 -277 108 -475 185 -198 76 -387 150 -420 163 -33 13 -143 55 -245 95 -102
39 -194 75 -205 80 -164 70 -223 81 -297 54z"/>
</g>
</svg>
